<?xml version="1.0" encoding="utf-8"?>
<!-- Generator: Adobe Illustrator 27.0.0, SVG Export Plug-In . SVG Version: 6.00 Build 0)  -->
<svg version="1.1" xmlns="http://www.w3.org/2000/svg" xmlns:xlink="http://www.w3.org/1999/xlink" x="0px" y="0px"
	 viewBox="0 0 1000 1000" style="enable-background:new 0 0 1000 1000;" xml:space="preserve">
<style type="text/css">
	.st0{display:none;}
	
		.st1{display:inline;fill:none;stroke:#000000;stroke-width:0.7087;stroke-linecap:round;stroke-linejoin:round;stroke-miterlimit:10;}
	.st2{fill:none;stroke:#00FF00;stroke-width:0.7087;stroke-linecap:round;stroke-linejoin:round;stroke-miterlimit:10;}
	.st3{fill:none;stroke:#000000;stroke-width:0.7087;stroke-linecap:round;stroke-linejoin:round;stroke-miterlimit:10;}
	.st4{fill:none;stroke:#FF0000;stroke-width:0.7087;stroke-linecap:round;stroke-linejoin:round;stroke-miterlimit:10;}
</style>
<g id="_x30_">
	<g id="LWPOLYLINE_00000109013668723997778660000016208650948337715118_" class="st0">
		<polyline class="st1" points="-3792.67,-452.86 -3792.67,-1452.86 -2792.67,-1452.86 -2792.67,-452.86 -3792.67,-452.86 		"/>
	</g>
	<g id="entrate">
		<g id="LWPOLYLINE_00000041279738251752004740000007119862728032764828_" class="Stile_x0020_grafica">
			<g class="Stile_x0020_grafica">
				<polygon class="Stile_x0020_grafica" points="581.32,886.03 825.37,860.29 825.37,923 581.32,923 				"/>
			</g>
			<g class="Stile_x0020_grafica">
				<polygon class="st2" points="581.32,886.03 825.37,860.29 825.37,923 581.32,923 				"/>
			</g>
		</g>
		<path class="Stile_x0020_grafica" d="M451.97,74.94l206.92,173.55l-296.5,362.36L155.47,437.31L451.97,74.94z M495.01,342.9
			c0-48.51-39.32-87.83-87.83-87.83s-87.83,39.32-87.83,87.83s39.32,87.83,87.83,87.83S495.01,391.41,495.01,342.9z"/>
		<g id="LWPOLYLINE_00000155104255616863394630000013630989437133291657_" class="Stile_x0020_grafica">
			<g class="Stile_x0020_grafica">
				<path class="Stile_x0020_grafica" d="M801.65,838.73l-204.61,21.58l-7.4-10.45c-13.72-19.36-35.98-30.87-59.71-30.87H414.31
					c-58.65,0-115.35-21.14-159.68-59.53l-89.26-77.3c-10.35-8.96-12.29-24.27-4.51-35.54l11.75-17
					c8.42-12.19,25.14-15.25,37.33-6.82l78.26,54.07c40.76,28.16,89.12,43.24,138.66,43.24h87.14c7.41,0,13.42-6.01,13.42-13.42
					v-2.07c0-7.41-6.01-13.42-13.42-13.42h-60.25c-14.82,0-26.83-12.01-26.83-26.83v-4.14c0-14.82,12.01-26.83,26.83-26.83h97.36
					c95.49,0,182.19,55.72,221.87,142.57L801.65,838.73z"/>
			</g>
			<g class="Stile_x0020_grafica">
				<path class="st2" d="M801.65,838.73l-204.61,21.58l-7.4-10.45c-13.72-19.36-35.98-30.87-59.71-30.87H414.31
					c-58.65,0-115.35-21.14-159.68-59.53l-89.26-77.3c-10.35-8.96-12.29-24.27-4.51-35.54l11.75-17
					c8.42-12.19,25.14-15.25,37.33-6.82l78.26,54.07c40.76,28.16,89.12,43.24,138.66,43.24h87.14c7.41,0,13.42-6.01,13.42-13.42
					v-2.07c0-7.41-6.01-13.42-13.42-13.42h-60.25c-14.82,0-26.83-12.01-26.83-26.83v-4.14c0-14.82,12.01-26.83,26.83-26.83h97.36
					c95.49,0,182.19,55.72,221.87,142.57L801.65,838.73z"/>
			</g>
		</g>
	</g>
	<g id="casa">
		<path class="Stile_x0020_grafica" d="M194.54,437.44l-25.76,23.23c-16.41,14.8-41.7,13.49-56.49-2.92l0,0
			c-14.8-16.41-13.49-41.7,2.92-56.49L451.92,97.59c30.44-27.46,76.71-27.46,107.16,0l177.38,159.97V117c0-22.09,17.91-40,40-40l0,0
			c22.09,0,40,17.91,40,40v212.71l79.34,71.55c16.41,14.8,17.71,40.09,2.92,56.49l0,0c-14.8,16.41-40.09,17.71-56.49,2.92
			l-25.76-23.23v420.38c0,32.68-26.5,59.18-59.18,59.18H603.25c-9.81,0-17.75-7.95-17.75-17.75V633.83
			c0-16.34-13.25-29.59-29.59-29.59H505.5h-50.41c-16.34,0-29.59,13.25-29.59,29.59v265.41c0,9.81-7.95,17.75-17.75,17.75H253.72
			c-32.69,0-59.18-26.5-59.18-59.18V437.44z"/>
	</g>
	<g id="salute">
		<polygon class="Stile_x0020_grafica" points="775.67,607.17 928.5,607.17 928.5,767.17 775.67,767.17 775.67,920 615.67,920 
			615.67,767.17 462.84,767.17 462.84,607.17 615.67,607.17 615.67,454.34 775.67,454.34 		"/>
		<path class="Stile_x0020_grafica" d="M382.84,696.11V527.17h152.83V374.34h320v90.07c90.46-81.61,97.64-221.11,16.02-311.57
			s-221.11-97.64-311.57-16.02c-18.56,16.75-34.14,36.52-46.07,58.49c-0.58,1.07-1.46,1.95-2.53,2.53
			c-3.06,1.66-6.89,0.53-8.55-2.53C444.8,88.24,310.86,48.6,203.8,106.76s-146.7,192.1-88.54,299.16
			c10.92,20.1,24.9,38.39,41.45,54.19L382.84,696.11z"/>
	</g>
	<path id="architettura" class="Stile_x0020_grafica" d="M124.73,882c-15.62-15.62-15.62-40.95,0-56.57L828.16,122
		c7.5-7.5,17.68-11.72,28.28-11.72c22.09,0,40,17.91,40,40v703.43c0,22.09-17.91,40-40,40H153.01
		C142.4,893.72,132.23,889.5,124.73,882z M337.23,786.07H788.8V334.5L337.23,786.07z"/>
	<g id="gatto">
		<path class="Stile_x0020_grafica" d="M509.5,357.61c-15.13-0.13-30.22,0.59-45.18,2.18c-63.57-65.96-136.67-121.17-217.5-164.27
			c-5.17-3.9-11.63-4.39-17.33-1.31c-5.7,3.08-8.82,8.76-8.38,15.22c-8.53,91.48-2.29,183.15,18.56,272.63
			c-16.91,26.14-26.61,54.23-28.74,83.19c-30.49-6.97-60.97-13.94-91.46-20.91c-1.91-0.44-3.85-0.11-5.51,0.93
			c-1.66,1.04-2.8,2.64-3.24,4.56c-0.95,4.17,1.32,7.79,5.49,8.75c31.43,7.19,62.87,14.38,94.3,21.56
			c0.4,22.21,5.29,44.13,14.56,65.25c-55.11,0-110.23,0-165.34,0c-4.28,0-7.3,3.02-7.3,7.3c0,4.28,3.02,7.3,7.3,7.3
			c57.51,0,115.02,0,172.53,0c7.18,13.13,16.04,25.68,26.48,37.54c-48.82,13.48-97.64,26.95-146.45,40.43
			c-4.12,1.14-6.23,4.86-5.1,8.98s4.86,6.23,8.98,5.1c51.31-14.17,102.62-28.33,153.94-42.5c15.11-21.01,36.91-53.57,65.39-97.65
			c-1.21-0.7-2.39-1.43-3.53-2.17c-1.43-0.94-2.81-1.91-4.12-2.91c-1.62-1.23-3.15-2.52-4.57-3.84c-2.26-2.1-4.28-4.31-6.01-6.59
			c-1.73-2.28-3.19-4.65-4.36-7.06c-0.37-0.77-0.72-1.56-1.03-2.34c-0.21-0.52-0.41-1.05-0.59-1.58s-0.35-1.05-0.5-1.58
			c-0.21-0.71-0.39-1.44-0.55-2.16c-0.12-0.57-0.23-1.13-0.32-1.7c-0.09-0.56-0.17-1.12-0.23-1.69c-0.09-0.8-0.14-1.61-0.17-2.41
			c-0.02-0.81-0.02-1.61,0.02-2.4c0.04-0.93,0.13-1.87,0.26-2.81c0.07-0.47,0.14-0.94,0.23-1.4c0.09-0.47,0.18-0.93,0.29-1.39
			c0.15-0.63,0.31-1.26,0.5-1.88c0.2-0.66,0.42-1.33,0.65-1.98c0.24-0.66,0.5-1.3,0.78-1.95c0.37-0.84,0.77-1.68,1.21-2.51
			c0.44-0.83,0.91-1.65,1.42-2.47c1.35-2.15,2.94-4.24,4.76-6.25c1.16-1.28,2.4-2.52,3.74-3.72c1.34-1.21,2.76-2.38,4.27-3.5
			c1.36-1.01,2.78-1.99,4.27-2.94c1.49-0.94,3.04-1.85,4.65-2.72c5.65-3.04,12-5.57,33.48-7.5c-7.71,24.33-4.77,51.68,7.46,69.45
			c12.23,17.77,28.13,17.77,40.36,0c12.23-17.77,15.17-45.11,7.46-69.45c18.62-22.33,37.25-44.67,55.87-67
			c7.6-7.6,17.53-11.72,28.28-11.72c10.75,0,20.68,4.11,28.28,11.72c18.62,22.33,37.25,44.67,55.87,67
			c-7.71,24.33-4.77,51.68,7.46,69.45c12.23,17.77,28.13,17.77,40.36,0c12.23-17.77,15.17-45.11,7.46-69.45
			c21.48,1.93,27.83,4.46,33.48,7.5c1.61,0.86,3.16,1.77,4.65,2.72c1.49,0.94,2.91,1.92,4.27,2.94c1.5,1.12,2.93,2.3,4.27,3.5
			c1.34,1.21,2.58,2.45,3.74,3.72c1.82,2.01,3.41,4.1,4.76,6.25c0.51,0.81,0.98,1.63,1.42,2.47c0.44,0.83,0.84,1.67,1.21,2.51
			c0.28,0.65,0.54,1.3,0.78,1.95c0.24,0.66,0.46,1.32,0.65,1.98c0.19,0.63,0.35,1.26,0.5,1.88c0.11,0.46,0.2,0.92,0.29,1.39
			s0.16,0.93,0.23,1.4c0.13,0.94,0.22,1.88,0.26,2.81c0.04,0.79,0.04,1.59,0.02,2.4c-0.02,0.81-0.08,1.61-0.17,2.41
			c-0.06,0.57-0.14,1.12-0.23,1.69c-0.09,0.56-0.2,1.13-0.32,1.7c-0.16,0.72-0.34,1.45-0.55,2.16c-0.15,0.53-0.32,1.05-0.5,1.58
			s-0.38,1.05-0.59,1.58c-0.31,0.79-0.66,1.57-1.03,2.34c-1.16,2.41-2.62,4.78-4.36,7.06s-3.75,4.49-6.01,6.59
			c-1.43,1.32-2.95,2.61-4.57,3.84c-1.31,1-2.69,1.97-4.12,2.91c-1.14,0.75-2.32,1.47-3.53,2.17
			c28.48,44.09,50.28,76.64,65.39,97.65c51.31,14.17,102.62,28.33,153.94,42.5c4.12,1.14,7.84-0.97,8.98-5.1
			c1.14-4.12-0.97-7.84-5.1-8.98c-48.82-13.48-97.64-26.95-146.45-40.43c10.44-11.86,19.3-24.41,26.48-37.54
			c57.51,0,115.02,0,172.53,0c4.28,0,7.3-3.02,7.3-7.3c0-4.28-3.02-7.3-7.3-7.3c-55.11,0-110.23,0-165.34,0
			c9.27-21.12,14.16-43.03,14.56-65.25c31.43-7.19,62.87-14.38,94.3-21.56c4.17-0.95,6.44-4.58,5.49-8.75
			c-0.44-1.91-1.57-3.51-3.24-4.56s-3.6-1.37-5.51-0.93c-30.49,6.97-60.97,13.94-91.46,20.91c-2.13-28.96-11.83-57.05-28.74-83.19
			c20.85-89.48,27.09-181.15,18.56-272.63c0.44-6.46-2.69-12.14-8.38-15.22c-5.7-3.08-12.16-2.59-17.33,1.31
			c-80.83,43.11-153.93,98.32-217.5,164.27C539.72,358.21,524.63,357.48,509.5,357.61z"/>
		<path class="Stile_x0020_grafica" d="M521.23,671.1c-7,5.07-16.46,5.07-23.45,0l-26.26-19.01c-1.32-2.28-2.01-4.87-2.01-7.5
			c0-8.28,6.72-15,15-15h25h25c2.63,0,5.22,0.69,7.5,2.01c7.17,4.14,9.63,13.32,5.49,20.49L521.23,671.1"/>
	</g>
	<g id="regali">
		<path class="Stile_x0020_grafica" d="M428.5,518.45h-260V877c0,22.09,17.91,40,40,40h220V518.45z"/>
		<path class="Stile_x0020_grafica" d="M428.5,437.08h-300c-22.09,0-40-17.91-40-40v-78.63c0-22.09,17.91-40,40-40h300V437.08z"/>
		<path class="Stile_x0020_grafica" d="M588.5,518.45h260V877c0,22.09-17.91,40-40,40h-220V518.45z"/>
		<path class="Stile_x0020_grafica" d="M588.5,437.08h300c22.09,0,40-17.91,40-40v-78.63c0-22.09-17.91-40-40-40h-300V437.08z"/>
		<path class="Stile_x0020_grafica" d="M508.5,238.45H362.73c-10.74,0-21.28-2.9-30.51-8.39l-82.13-33.45
			c-4.41-2.63-8.08-6.35-10.63-10.8c-8.19-14.3-3.25-32.53,11.05-40.72l41.97,2.26c6.45-3.7,12.15-8.57,16.81-14.36l36.1-44.86
			c0.84-1.04,1.75-2.03,2.72-2.95c11.96-11.34,30.84-10.84,42.18,1.12L508.5,200.19L626.72,86.31c0.92-0.97,1.9-1.88,2.95-2.72
			c12.84-10.33,31.62-8.3,41.95,4.54l36.1,44.86c4.66,5.79,10.36,10.66,16.81,14.36l41.97-2.26c4.46,2.55,8.18,6.22,10.8,10.63
			c8.42,14.16,3.78,32.47-10.39,40.9l-82.13,33.45c-9.23,5.49-19.77,8.39-30.51,8.39H508.5z"/>
	</g>
	<g id="portafoglio">
		<path class="Stile_x0020_grafica" d="M281.52,207.98h460.96L666.66,92.91c-12.86-20.31-38.64-28.14-60.62-18.42L281.52,207.98"/>
		<path class="Stile_x0020_grafica" d="M870,436.23H733.5c-72.35,0-131.01,58.65-131.01,131.01v4.36
			c0,72.35,58.65,131.01,131.01,131.01H870v91.28c0,64.31-52.14,116.45-116.45,116.45H128.5c-22.09,0-40-17.91-40-40V287.98
			c0-22.09,17.91-40,40-40h625.05c64.31,0,116.45,52.14,116.45,116.45V436.23z"/>
		<path class="Stile_x0020_grafica" d="M928.41,566.23c0-27.61-22.39-50-50-50H733.5c-28.17,0-51.01,22.84-51.01,51.01v4.36
			c0,28.17,22.84,51.01,51.01,51.01h144.91c27.61,0,50-22.39,50-50V566.23"/>
	</g>
	<g id="spesa">
		<circle class="Stile_x0020_grafica" cx="830.43" cy="838" r="80"/>
		<circle class="Stile_x0020_grafica" cx="314.2" cy="838" r="80"/>
		<path class="Stile_x0020_grafica" d="M830.43,638H415.85c-22.09,0-40-17.91-40-40v-4.5c0-20.45,15.42-37.6,35.75-39.77L853,506.54
			c40.66-4.35,71.5-38.66,71.5-79.55V273.24c0-44.18-35.82-80-80-80H341.27c-15.7,0-29.95-9.19-36.43-23.49l-30.94-68.27
			C267.41,87.19,253.16,78,237.46,78H124.5c-22.09,0-40,17.91-40,40l0,0c0,22.09,17.91,40,40,40h54.1
			c19.19,0,35.68,13.63,39.29,32.48l79.22,424.8C305.69,674.26,356.26,718,415.85,718h414.58V638z"/>
	</g>
	<g id="hobby">
		<g id="ELLIPSE_00000054231769688910934450000010975407222137095842_" class="Stile_x0020_grafica">
			<g class="Stile_x0020_grafica">
				
					<ellipse transform="matrix(0.7386 -0.6741 0.6741 0.7386 -420.1142 441.393)" class="Stile_x0020_grafica" cx="359.17" cy="762.48" rx="47.27" ry="94.86"/>
			</g>
			<g class="Stile_x0020_grafica">
				
					<ellipse transform="matrix(0.7386 -0.6741 0.6741 0.7386 -420.1142 441.393)" class="st3" cx="359.17" cy="762.48" rx="47.27" ry="94.86"/>
			</g>
		</g>
		<path class="Stile_x0020_grafica" d="M760.52,387.71c-11.3-7.98-24.23-13.5-37.8-16.16c48.28-9.45,82.16-53.3,75.99-98.97
			c-6.26-46.36-51.42-77.03-100.87-68.5c-13.66,2.35-26.72,7.61-38.21,15.34c27.5-40.83,20.48-95.82-16.19-123.76
			c-37.21-28.35-90.83-18.11-119.77,22.89c-7.98,11.3-13.5,24.23-16.16,37.8c-9.45-48.28-53.3-82.16-98.97-75.99
			c-46.36,6.26-77.03,51.42-68.5,100.87c2.35,13.66,7.61,26.72,15.34,38.21c-40.83-27.5-95.82-20.48-123.76,16.19
			c-28.35,37.21-18.11,90.83,22.89,119.77c11.3,7.98,24.23,13.5,37.8,16.16c-48.28,9.45-82.16,53.3-75.99,98.97
			c6.26,46.36,51.42,77.03,100.87,68.5c13.66-2.35,26.72-7.61,38.21-15.34c-27.5,40.83-20.48,95.82,16.19,123.76
			c37.21,28.35,90.83,18.11,119.77-22.89c7.98-11.3,13.5-24.23,16.16-37.8c9.45,48.28,53.3,82.16,98.97,75.99
			c46.36-6.26,77.03-51.42,68.5-100.87c-2.35-13.66-7.61-26.72-15.34-38.21c40.83,27.5,95.82,20.48,123.76-16.19
			C811.76,470.27,801.51,416.65,760.52,387.71z M507.52,451.55c-44.18,0-80-35.82-80-80c0-44.18,35.82-80,80-80
			c44.18,0,80,35.82,80,80C587.52,415.73,551.7,451.55,507.52,451.55z"/>
		<g id="LWPOLYLINE_00000142884115191216433950000008496024104157294768_" class="Stile_x0020_grafica">
			<g class="Stile_x0020_grafica">
				<path class="Stile_x0020_grafica" d="M508.5,918.34c-22.09,0-40-17.91-40-40V721.57c0-22.09,17.91-40,40-40l0,0
					c22.09,0,40,17.91,40,40v156.77C548.5,900.43,530.59,918.34,508.5,918.34z"/>
			</g>
			<g class="Stile_x0020_grafica">
				<path class="st3" d="M508.5,918.34c-22.09,0-40-17.91-40-40V721.57c0-22.09,17.91-40,40-40l0,0c22.09,0,40,17.91,40,40v156.77
					C548.5,900.43,530.59,918.34,508.5,918.34z"/>
			</g>
		</g>
	</g>
	<g id="viaggi">
		<path class="Stile_x0020_grafica" d="M142.83,920c-31.11,0-56.33-25.22-56.33-56.33V258.76c0-31.11,25.22-56.33,56.33-56.33h82.42
			V920H142.83z"/>
		<path class="Stile_x0020_grafica" d="M713.78,920H305.25V202.43h50.58v-66.1c0-31.11,25.22-56.33,56.33-56.33h194.71
			c31.11,0,56.33,25.22,56.33,56.33v66.1h50.58V920z M623.2,136.33c0-9.02-7.31-16.33-16.33-16.33H412.16
			c-9.02,0-16.33,7.31-16.33,16.33v66.1H623.2V136.33z"/>
		<path class="Stile_x0020_grafica" d="M870.17,920c31.11,0,56.33-25.22,56.33-56.33V258.76c0-31.11-25.22-56.33-56.33-56.33h-82.42
			V920H870.17z"/>
	</g>
	<g id="banca">
		<polygon class="Stile_x0020_grafica" points="747.1,354.56 774.34,720 628.46,720 654.07,354.56 		"/>
		<polygon class="Stile_x0020_grafica" points="551.88,354.56 580.04,720 434.17,720 458.85,354.56 		"/>
		<polygon class="Stile_x0020_grafica" points="359.52,354.56 386.76,720 240.89,720 266.49,354.56 		"/>
		<polygon class="Stile_x0020_grafica" points="843.76,216.95 505.63,80 167.51,216.95 167.13,314.56 843.76,314.56 		"/>
		<polygon class="Stile_x0020_grafica" points="85.63,920 925.63,920 925.63,840 845.63,840 845.63,760 165.63,760 165.63,840 
			85.63,840 		"/>
	</g>
	<g id="cibo">
		<path class="Stile_x0020_grafica" d="M623.18,920c-4.5,0-8.92-1.17-12.82-3.4l-22.86-13.03c-8.52-4.86-13.57-14.11-13.03-23.91
			l25.11-430.1c0.61-11.17-6.02-21.47-16.44-25.53l-44.51-17.38c-9.94-3.88-16.48-13.46-16.48-24.12V92.95
			c0-7.15,5.8-12.95,12.95-12.95l0,0c7.15,0,12.95,5.8,12.95,12.95V288.4c0,7.15,5.8,12.95,12.95,12.95h6.93
			c7.15,0,12.95-5.8,12.95-12.95V92.95c0-7.15,5.8-12.95,12.95-12.95l0,0l0,0c7.15,0,12.95,5.8,12.95,12.95V288.4
			c0,7.15,5.8,12.95,12.95,12.95h6.93c7.15,0,12.95-5.8,12.95-12.95V92.95c0-7.15,5.8-12.95,12.95-12.95l0,0l0,0
			c7.15,0,12.95,5.8,12.95,12.95V288.4c0,7.15,5.8,12.95,12.95,12.95h6.93c7.15,0,12.95-5.8,12.95-12.95V92.95
			c0-7.15,5.8-12.95,12.95-12.95l0,0c7.15,0,12.95,5.8,12.95,12.95v289.58c0,10.67-6.54,20.24-16.48,24.12l-44.51,17.38
			c-10.42,4.07-17.05,14.37-16.44,25.53l25.11,430.1c0.53,9.8-4.51,19.05-13.03,23.91L636,916.6C632.1,918.83,627.68,920,623.18,920
			z"/>
		<path class="Stile_x0020_grafica" d="M411.86,430.79l15.77-332.26c0.42-9.8-7.19-18.09-17-18.51c-3.16-0.13-6.31,0.58-9.1,2.07
			c-31.87,9.33-57.54,33.04-69.36,64.07c-53.05,108.03-85.74,224.92-96.44,344.8c-1.49,16.68,7.57,32.52,22.7,39.69l72.55,34.42
			c4.98,3.05,7.88,8.59,7.56,14.42l-17.79,289.63c-0.74,13.58,6.25,26.41,18.07,33.14l22.86,13.03c11.02,6.28,24.53,6.28,35.55,0
			l22.86-13.03c11.81-6.73,18.81-19.56,18.07-33.14L411.86,430.79z"/>
	</g>
	<g id="maialino">
		<path class="Stile_x0020_grafica" d="M115.55,402.3c-15.49,0.29-29.92-7.83-37.72-21.21c-1.41-2.42-4.41-3.39-6.97-2.27
			l-2.22,0.97c-2.78,1.22-4.05,4.47-2.83,7.25c0.08,0.18,0.17,0.36,0.27,0.53C78.8,409.67,90.94,408.95,115.55,402.3z"/>
		<path class="Stile_x0020_grafica" d="M123.94,396.7c26.8-2.14,30.24-11.16,33.12-18.72s2.1-21.96-19.8-26.64
			c-12.26-2.62-28.81,1.19-30.24,17.64C106.01,380.57,110.17,387.37,123.94,396.7z"/>
		<path class="Stile_x0020_grafica" d="M177.82,395.55c50.93-62.43,125.63-100.73,206.05-105.65c0.28-0.02,0.56-0.03,0.84-0.03
			h206.77c8.08,0,15.9-2.84,22.1-8.03c49.18-41.2,113.95-58.75,177.2-48.02c4.59,0.78,8.78,3.09,11.9,6.55
			c7.62,8.48,6.93,21.53-1.55,29.16c-27.57,24.79-43.09,60.29-42.57,97.37c0.08,5.96,3.25,11.46,8.37,14.52
			c32.37,19.38,59.39,46.53,78.62,78.99c8.36,14.04,20.58,25.39,35.21,32.69l48.95,23.8c9.82,6.34,15.75,17.22,15.75,28.91v95.12
			c0,14.7-9.34,27.78-23.25,32.55l-72.69,24.93c-6.62,2.27-12.38,6.5-16.54,12.13c-25.17,34.14-59.42,60.54-98.84,76.2
			c-9.32,3.7-16.56,11.28-19.83,20.76l-26.18,75.89c-5.56,16.13-20.75,26.96-37.81,26.96H586.1c-13.36,0-25.52-7.73-31.17-19.84
			l-8-17.11c-6.48-13.85-21.32-21.77-36.43-19.43c-29.14,4.51-58.83,4.12-87.85-1.15c-17.33-3.14-34.23,7.3-39.17,24.2l-2.51,8.59
			c-4.29,14.67-17.74,24.75-33.03,24.75h-79.69c-14.84,0-28.01-9.51-32.67-23.6l-30.27-91.45c-1.68-5.08-4.52-9.69-8.29-13.48
			c-96.26-96.59-111.79-247.37-37.26-361.56c-15.6,4.19-25.34-4.52-29.92-13.72C146.64,411.84,165,407.63,177.82,395.55z
			 M350.18,357.06c0,15.01,25.63,27.18,57.24,27.18H521.9c31.61,0,57.24-12.17,57.24-27.18l0,0c0-15.01-25.63-27.18-57.24-27.18
			H407.42C375.81,329.87,350.18,342.04,350.18,357.06z"/>
		<g id="CIRCLE_00000032650430913617287950000013924203020714765742_" class="Stile_x0020_grafica">
			<g class="Stile_x0020_grafica">
				<circle class="Stile_x0020_grafica" cx="460.16" cy="166.78" r="80"/>
			</g>
			<g class="Stile_x0020_grafica">
				<circle class="st3" cx="460.16" cy="166.78" r="80"/>
			</g>
		</g>
	</g>
	<g id="uscite">
		<g id="CIRCLE_00000088811610426544401550000006070594820890352303_" class="Stile_x0020_grafica">
			<g class="Stile_x0020_grafica">
				<circle class="Stile_x0020_grafica" cx="514.65" cy="581.98" r="113.02"/>
			</g>
			<g class="Stile_x0020_grafica">
				<circle class="st3" cx="514.65" cy="581.98" r="113.02"/>
			</g>
		</g>
		<g id="ARC_00000086655241316779688710000016886384036125527707_" class="Stile_x0020_grafica">
			<g class="Stile_x0020_grafica">
				<path class="Stile_x0020_grafica" d="M388.02,649.48c-19.85,2.79-54.18-6.82-59.57-26.13c2.08,19.44-10.19,37.54-29.03,42.79
					c-21.28,5.93-43.34-6.51-49.27-27.79l-5.37-19.27c5.93,21.28-6.51,43.34-27.79,49.27s-43.34-6.51-49.27-27.79l10.74,38.53
					c0.01,0.04,0.02,0.09,0.04,0.13c5.86,21.3-6.65,43.32-27.95,49.18c-21.3,5.86-43.32-6.65-49.18-27.95l0.05,0.18
					c-14.71-52.89-2.9-103.37,26.39-149.8c59.04-93.6,219.17-82.53,263.47-40.17C367.56,535,355.32,600.52,388.02,649.48z"/>
			</g>
			<g class="Stile_x0020_grafica">
				<path class="st3" d="M388.02,649.48c-19.85,2.79-54.18-6.82-59.57-26.13c2.08,19.44-10.19,37.54-29.03,42.79
					c-21.28,5.93-43.34-6.51-49.27-27.79l-5.37-19.27c5.93,21.28-6.51,43.34-27.79,49.27s-43.34-6.51-49.27-27.79l10.74,38.53
					c0.01,0.04,0.02,0.09,0.04,0.13c5.86,21.3-6.65,43.32-27.95,49.18c-21.3,5.86-43.32-6.65-49.18-27.95l0.05,0.18
					c-14.71-52.89-2.9-103.37,26.39-149.8c59.04-93.6,219.17-82.53,263.47-40.17C367.56,535,355.32,600.52,388.02,649.48z"/>
			</g>
		</g>
		<g id="ARC_00000132790130948339886890000009853004599358680994_" class="Stile_x0020_grafica">
			<g class="Stile_x0020_grafica">
				<path class="Stile_x0020_grafica" d="M656.97,559.37c17.57-9.66,39.31-37.91,32.06-56.6c9.97,16.82,30.64,23.96,48.87,16.89
					c20.6-7.99,30.81-31.16,22.82-51.76l-7.23-18.65c7.99,20.6,31.16,30.81,51.76,22.82s30.81-31.16,22.82-51.76l14.47,37.29
					c0.02,0.04,0.03,0.08,0.05,0.13c8.06,20.57,31.27,30.71,51.84,22.65s30.71-31.27,22.65-51.84l0.07,0.17
					c-19.89-51.17-59.58-84.52-110.84-104.17c-103.33-39.61-224.94,65.15-235.06,125.6C604.8,455.44,653.84,500.58,656.97,559.37z"
					/>
			</g>
			<g class="Stile_x0020_grafica">
				<path class="st3" d="M656.97,559.37c17.57-9.66,39.31-37.91,32.06-56.6c9.97,16.82,30.64,23.96,48.87,16.89
					c20.6-7.99,30.81-31.16,22.82-51.76l-7.23-18.65c7.99,20.6,31.16,30.81,51.76,22.82s30.81-31.16,22.82-51.76l14.47,37.29
					c0.02,0.04,0.03,0.08,0.05,0.13c8.06,20.57,31.27,30.71,51.84,22.65s30.71-31.27,22.65-51.84l0.07,0.17
					c-19.89-51.17-59.58-84.52-110.84-104.17c-103.33-39.61-224.94,65.15-235.06,125.6C604.8,455.44,653.84,500.58,656.97,559.37z"
					/>
			</g>
		</g>
		<path class="Stile_x0020_grafica" d="M626.21,230.04c13.4,36.75-67.57,100.04-180.86,141.35s-215.99,45.01-229.39,8.25
			s67.57-100.04,180.86-141.35S612.81,193.29,626.21,230.04z M407.61,267.88c-78.28,28.54-135.7,68.23-128.25,88.65
			c7.44,20.41,76.93,13.82,155.21-14.72s135.7-68.23,128.25-88.65S485.88,239.33,407.61,267.88z"/>
	</g>
	<g id="macchina">
		<g id="CIRCLE" class="Stile_x0020_grafica">
			<g class="Stile_x0020_grafica">
				<circle class="Stile_x0020_grafica" cx="267.18" cy="647.48" r="82.27"/>
			</g>
			<g class="Stile_x0020_grafica">
				<circle class="st4" cx="267.18" cy="647.48" r="82.27"/>
			</g>
		</g>
		<g id="CIRCLE_00000103233609439705468100000009087664859349254797_" class="Stile_x0020_grafica">
			<g class="Stile_x0020_grafica">
				<circle class="Stile_x0020_grafica" cx="750.55" cy="647.48" r="82.27"/>
			</g>
			<g class="Stile_x0020_grafica">
				<circle class="st4" cx="750.55" cy="647.48" r="82.27"/>
			</g>
		</g>
		<path class="Stile_x0020_grafica" d="M868.44,647.48c0-65.11-52.78-117.89-117.89-117.89s-117.89,52.78-117.89,117.89H385.07
			c0-65.11-52.78-117.89-117.89-117.89S149.3,582.37,149.3,647.48h-43.18c-11.37-22.46-17.61-47.42-17.61-73.01
			c0-79.47,17.7-134.51,75.3-152.35l0-24.5c0-109.55,46.08-180.36,212.4-180.36c4.56,0,39.13,0.07,43.72,0.22
			C557.38,221.86,705,291.6,705,397.61v24.5c168.48,0,223.5,72.81,223.5,182.36c0,12.77-1.55,30.91-4.52,43H868.44z M431.4,284.16
			v109.61c0,14.55,11.01,26.35,24.6,26.35h169.88c13.62,0,24.03-13.27,21.41-27.59c-14.77-80.55-93.22-123.39-191.31-132.52
			C442.76,258.78,431.4,269.95,431.4,284.16z M359.38,259.92c-113.02,0-147.42,55.08-147.11,132.5c0.06,14.51,5.99,27.7,16.46,27.7
			h130.63c10.45,0,18.91-11.84,18.91-26.46v-109.5C378.28,269.9,369.6,259.92,359.38,259.92z"/>
	</g>
	<g id="curapersona">
		<ellipse class="Stile_x0020_grafica" cx="380.16" cy="713.23" rx="157.34" ry="35.97"/>
		<path class="Stile_x0020_grafica" d="M541.1,616.85l2.1-0.99c83.33-40.15,138.52-110.17,138.52-189.83
			c0-115.53-116.07-210.78-265.73-224.04c0,0,6.23-34.95-35.84-34.95c-44.33,0-39.51,35.29-39.51,35.29
			C192.77,216.8,78.59,311.43,78.59,426.02c0,79.7,55.24,149.75,138.64,189.89l1.99,0.94c-84.51,25.44-140.62,70.32-140.62,121.44
			c0,79.29,135.01,143.57,301.56,143.57c166.55,0,301.56-64.28,301.56-143.57C681.72,687.16,625.6,642.29,541.1,616.85z
			 M146.37,426.02c0-88.36,104.67-159.98,233.79-159.98s233.79,71.63,233.79,159.98c0,88.36-104.67,159.98-233.79,159.98
			S146.37,514.38,146.37,426.02z M380.16,798.79c-122.02,0-220.93-34.74-220.93-77.59s98.92-77.59,220.93-77.59
			s220.93,34.74,220.93,77.59S502.18,798.79,380.16,798.79z"/>
		<path class="Stile_x0020_grafica" d="M761.26,743.99v-209.7c0,12.82,37.64,23.2,84.07,23.2s84.07-10.39,84.07-23.2v209.7
			c0,12.82-37.64,23.2-84.07,23.2S761.26,756.81,761.26,743.99z"/>
		<path class="Stile_x0020_grafica" d="M900.5,493.68c0,9.58-24.7,17.34-55.17,17.34c-30.47,0-55.17-7.76-55.17-17.34v-91.87
			c0,9.58,24.7,17.34,55.17,17.34c30.47,0,55.17-7.76,55.17-17.34C900.5,401.81,900.5,493.68,900.5,493.68z"/>
		<path class="Stile_x0020_grafica" d="M808.76,188.9v168.22c0,10.33,16.38,18.7,36.58,18.7c20.2,0,36.58-8.37,36.58-18.7V134.09
			C881.91,86.7,808.76,143.09,808.76,188.9z"/>
	</g>
</g>
<g id="guide">
</g>
</svg>
