<?xml version="1.0" encoding="UTF-8" standalone="no"?>
<!-- Created with Inkscape (http://www.inkscape.org/) -->

<svg
   width="105.93362mm"
   height="61.787766mm"
   viewBox="0 0 105.93363 61.787766"
   version="1.1"
   id="svg5"
   sodipodi:docname="traditional_hemp.svg"
   inkscape:version="1.2-beta (1b65182ce9, 2022-04-05)"
   xmlns:inkscape="http://www.inkscape.org/namespaces/inkscape"
   xmlns:sodipodi="http://sodipodi.sourceforge.net/DTD/sodipodi-0.dtd"
   xmlns="http://www.w3.org/2000/svg"
   xmlns:svg="http://www.w3.org/2000/svg">
  <sodipodi:namedview
     id="namedview5"
     pagecolor="#505050"
     bordercolor="#eeeeee"
     borderopacity="1"
     inkscape:pageshadow="0"
     inkscape:pageopacity="0"
     inkscape:pagecheckerboard="0"
     inkscape:deskcolor="#505050"
     inkscape:document-units="mm"
     showgrid="false"
     inkscape:zoom="2.5006253"
     inkscape:cx="213.94649"
     inkscape:cy="107.17319"
     inkscape:window-width="1366"
     inkscape:window-height="697"
     inkscape:window-x="-8"
     inkscape:window-y="-8"
     inkscape:window-maximized="1"
     inkscape:current-layer="svg5" />
  <defs
     id="defs2" />
  <path
     style="fill:#ffffff;fill-opacity:1;stroke:none;stroke-width:1"
     d="M 0.5865585,-12.751209 V 13.17796 h 0.26459 L 5.9525785,4.1821206 7.880331,0.00239248 C 5.8712154,-4.4737514 3.115847,-8.5588287 0.5865585,-12.751209 m 51.5937475,0 c -2.514649,4.1646238 -4.86619,8.401902 -7.030767,12.75423217 l 1.92934,4.17909743 5.101427,8.9958394 h 0.26459 V -4.8137094 l -0.26459,-7.9374996 m 1.32292,0 V 13.17796 h 0.26458 l 5.10143,-8.9958394 1.91056,-3.70416 c -1.727562,-4.7627814 -4.667629,-8.9199208 -7.27657,-13.2291696 m 51.593764,0 c -2.49714,4.1812641 -4.88557,8.4087034 -7.069139,12.75883352 l 1.967705,4.17449608 5.101434,8.9958394 h 0.26458 V -4.8137094 l -0.26458,-7.9374996 M 1.9094785,13.70712 24.134479,1.0071206 c -2.90513,-1.21904 -7.95232,-0.26458 -11.1125,-0.26458 -1.06098,0 -2.88687,-0.34695 -3.8073505,0.27194 -1.07342,0.72139 -1.72773,2.6003 -2.35241,3.69681 -1.63513,2.87009 -3.9542,5.8400694 -4.95274,8.9958294 M 28.896979,0.7425406 v 0.26458 L 51.121976,13.70712 45.869999,4.1821206 43.613369,0.90219064 39.215729,0.7425406 H 28.896979 M 54.826146,13.70712 77.051146,1.0071206 c -2.90513,-1.21904 -7.95232,-0.26458 -11.1125,-0.26458 -1.06098,0 -2.88687,-0.34695 -3.80736,0.27194 -1.07262,0.72086 -1.72905,2.60043 -2.35241,3.69681 -1.63168,2.86994 -3.95525,5.8434794 -4.95273,8.9958294 M 81.813656,0.7425406 v 0.26458 L 104.03866,13.70712 98.786676,4.1821206 96.530046,0.90219064 92.132406,0.7425406 h -10.31875 m -57.414597,1.32292 C 17.557469,6.5926106 9.8676185,11.29293 2.4386485,14.76546 v 0.26458 H 12.757399 c 1.27449,0 3.30755,0.37994 4.44897,-0.27199 2.0521,-1.17211 3.47715,-5.3887394 4.62121,-7.4009294 0.80142,-1.4098 2.72706,-3.65053 2.57148,-5.29166 m 3.96875,0 4.94612,8.9958294 2.51116,3.69676 4.44897,0.27199 H 50.592806 V 14.76546 L 28.367809,2.0654606 m 48.947917,0 c -6.85535,4.53628 -14.5325,9.1869094 -21.96042,12.6999994 v 0.26458 h 10.31875 c 1.2745,0 3.30756,0.37994 4.44897,-0.27199 2.01533,-1.15094 3.33137,-5.1834794 4.49369,-7.1363394 0.87365,-1.46741 2.8059,-3.82471 2.69901,-5.55625 m 3.96876,0 4.94612,8.9958294 2.51116,3.69676 4.44897,0.27199 H 103.50949 V 14.76546 L 81.284486,2.0654606 m -55.562507,0.52916 -5.10805,8.9958394 -1.91981,3.96875 2.00369,4.23333 5.02417,8.73125 h 0.26458 V 10.53212 l -0.26458,-7.9374994 m 1.32292,0 V 28.52379 h 0.26458 l 4.86754,-8.46667 2.14445,-4.23333 -1.60814,-3.70417 -5.66843,-9.5249994 m 51.593747,0 -5.10805,8.9958394 -1.91982,3.96875 1.8886,3.96875 5.13927,8.99583 h 0.26458 V 10.53212 l -0.26458,-7.9374994 m 1.32291,0 V 28.52379 h 0.26459 l 4.86755,-8.46667 2.14444,-4.23333 -1.60813,-3.70417 -5.66845,-9.5249994 M 2.4386485,16.08837 v 0.26459 c 7.07072,4.32752 14.5793305,9.49986 22.2250005,12.7 l -5.13927,-9.26042 -2.32542,-3.43218 -4.44156,-0.27199 H 2.4386485 M 28.367809,29.05296 c 7.64143,-3.19829 15.15745,-8.37433 22.224997,-12.7 -2.90512,-1.21894 -7.952307,-0.26459 -11.112497,-0.26459 -1.13374,0 -2.92073,-0.33337 -3.86556,0.42413 -1.1221,0.89958 -1.85526,2.83713 -2.55878,4.07379 -1.55417,2.73209 -3.60813,5.51683 -4.68816,8.46667 M 55.355306,16.08837 v 0.26459 c 7.06755,4.32567 14.58357,9.50171 22.225,12.7 l -5.17948,-9.26042 -2.28521,-3.43218 -4.44156,-0.27199 h -10.31875 m 25.92918,12.96459 c 7.64434,-3.19961 15.15533,-8.37327 22.225004,-12.7 -2.90513,-1.21894 -7.952324,-0.26459 -11.112504,-0.26459 -1.13374,0 -2.92074,-0.33337 -3.86556,0.42413 -1.1221,0.89958 -1.85526,2.83713 -2.55879,4.07379 -1.55416,2.73209 -3.60812,5.51683 -4.68815,8.46667 M 1.9094785,17.41129 l 4.96596,8.99583 2.49794,3.69676 4.4423505,0.27199 h 10.31875 v -0.26458 l -22.2250005,-12.7 m 48.9479175,0 -21.960417,12.7 v 0.26458 h 10.31875 c 1.26259,0 3.31708,0.3855 4.44235,-0.27199 1.98226,-1.15808 3.50573,-5.42845 4.627827,-7.40092 0.80169,-1.40944 2.72706,-3.65099 2.57149,-5.29167 m 3.96875,0 5.13847,9.26042 2.32542,3.43217 4.44236,0.27199 h 10.31875 v -0.26458 l -22.225,-12.7 m 48.947924,0 -21.960414,12.7 v 0.26458 h 10.31875 c 1.26259,0 3.31708,0.3855 4.44235,-0.27199 1.98226,-1.15808 3.505734,-5.42845 4.627834,-7.40092 0.80169,-1.40944 2.72706,-3.65099 2.57148,-5.29167 M 0.5865585,17.94046 v 25.92916 h 0.26459 l 4.81568,-8.46666 2.229905,-4.44826 -1.600725,-3.48924 -5.70945,-9.525 m 51.5937475,0 -5.138467,8.99583 -1.8923,4.01905 2.05687,4.18303 4.973897,8.73125 h 0.26459 V 25.87796 l -0.26459,-7.9375 m 1.32292,0 v 25.92916 h 0.26458 l 4.9874,-8.73125 2.02459,-3.96875 -1.56713,-3.70416 -5.70944,-9.525 m 51.593764,0 -5.138474,8.99583 -1.8923,3.96875 2.056874,4.23333 4.9739,8.73125 h 0.26458 V 25.87796 l -0.26458,-7.9375 M 1.9094785,44.39879 l 22.2250005,-12.7 c -2.90513,-1.21894 -7.95232,-0.26458 -11.1125,-0.26458 -1.14141,0 -2.91306,-0.32967 -3.8684705,0.42412 -1.15094,0.90832 -1.8415,2.8202 -2.55588,4.07379 -1.56501,2.74664 -3.60495,5.4909 -4.68815,8.46667 M 28.896979,31.43421 v 0.26458 l 22.224997,12.7 -5.138467,-9.26042 -2.32543,-3.43217 -4.44235,-0.27199 h -10.31875 m 25.929167,12.96458 22.225,-12.7 c -2.90513,-1.21894 -7.95232,-0.26458 -11.1125,-0.26458 -1.14142,0 -2.91307,-0.32967 -3.86848,0.42412 -1.15093,0.90832 -1.8415,2.8202 -2.55587,4.07379 -1.56501,2.74664 -3.60495,5.4909 -4.68815,8.46667 m 26.98751,-12.96458 v 0.26458 l 22.225004,12.7 -5.138484,-9.26042 -2.32542,-3.43217 -4.44235,-0.27199 h -10.31875 m -57.414597,1.32291 -21.9604105,12.7 v 0.26459 H 12.757399 c 1.25836,0 3.32184,0.38788 4.44156,-0.27199 1.9296,-1.13666 3.3438,-5.21944 4.44288,-7.13635 0.82788,-1.44436 2.91412,-3.88673 2.75722,-5.55625 m 3.96875,0 5.13927,9.26042 2.32542,3.43218 4.44156,0.27199 h 10.318747 v -0.26459 l -12.699997,-7.35541 -9.525,-5.34459 m 48.947917,0 -21.96042,12.7 v 0.26459 h 10.31875 c 1.25836,0 3.32185,0.38788 4.44156,-0.27199 1.92961,-1.13666 3.34381,-5.21944 4.44289,-7.13635 0.84164,-1.46817 2.91967,-3.84254 2.75722,-5.55625 m 3.96876,0 5.13927,9.26042 2.32542,3.43218 4.44156,0.27199 h 10.318754 v -0.26459 l -12.700004,-7.35541 -9.525,-5.34459 m -55.562507,0.52917 -5.13927,8.99583 -1.96559,3.96875 2.00343,3.96875 5.10143,8.99584 h 0.26458 V 41.22379 l -0.26458,-7.9375 m 1.32292,0 v 25.92917 h 0.26458 l 5.10143,-8.99584 1.97776,-3.70416 -1.59729,-3.70417 -5.74648,-9.525 m 51.593747,0 -5.13927,8.99583 -1.96824,3.96875 2.00608,3.96875 5.10143,8.99584 h 0.26458 V 41.22379 l -0.26458,-7.9375 m 1.32291,0 v 25.92917 h 0.26459 l 5.10144,-8.99584 1.97776,-3.70416 -1.59729,-3.70417 -5.7465,-9.525 M 2.4386485,46.78004 v 0.26458 l 22.2250005,12.7 -5.28876,-9.525 -2.22276,-3.28004 -4.39473,-0.15954 H 2.4386485 m 25.9291605,12.96458 22.224997,-12.7 c -2.90512,-1.21893 -7.952307,-0.26458 -11.112497,-0.26458 -1.04854,0 -2.89692,-0.3519 -3.801,0.27199 -1.04616,0.72179 -1.74202,2.61276 -2.35876,3.69676 -1.62666,2.85962 -3.95949,5.8584 -4.95274,8.99583 M 55.355306,46.78004 v 0.26458 l 22.225,12.7 -5.25198,-9.525 -2.25954,-3.28004 -4.39473,-0.15954 h -10.31875 m 25.92918,12.96458 22.225004,-12.7 c -2.90513,-1.21893 -7.952324,-0.26458 -11.112504,-0.26458 -1.04854,0 -2.89692,-0.3519 -3.801,0.27199 -0.99351,0.68554 -1.57745,2.41618 -2.17938,3.43218 -1.72376,2.90856 -4.1103,6.0317 -5.13212,9.26041 M 1.9094785,48.10296 l 5.25198,9.525 2.25663,3.28004 4.3976405,0.15954 h 10.31875 v -0.26458 l -22.2250005,-12.7 m 48.9479175,0 c -6.856947,4.52305 -14.521127,9.22258 -21.960417,12.7 v 0.26458 h 10.58333 l 4.33652,-0.27199 4.320387,-7.13634 2.72018,-5.55625 m 3.96875,0 5.25198,9.525 2.25663,3.28004 4.39764,0.15954 h 10.31875 v -0.26458 l -22.225,-12.7 m 48.947924,0 c -6.856944,4.52305 -14.521124,9.22258 -21.960414,12.7 v 0.26458 h 10.58333 c 1.17634,0 3.32131,0.41063 4.33652,-0.27199 1.83277,-1.2319 3.06149,-4.98793 4.183334,-6.87176 0.8554,-1.43642 3.10065,-4.15158 2.85723,-5.82083 M 0.5865585,48.63212 v 25.92917 h 0.26459 C 3.3420648,70.378893 5.6899801,66.130436 7.880331,61.786473 l -1.6253325,-3.629353 -5.66844,-9.525 m 51.5937475,0 -5.101427,8.99584 -1.92934,3.96875 c 1.991541,4.504641 4.591305,8.695175 7.030767,12.96458 h 0.26459 V 56.56962 l -0.26459,-7.9375 m 1.32292,0 v 25.92917 h 0.26458 c 2.463417,-4.172669 4.817823,-8.397791 7.04321,-12.7 l -1.79123,-3.96875 -5.51656,-9.26042 m 51.593764,0 -5.101434,8.99584 -1.967705,4.155792 c 2.138409,4.376473 4.654439,8.550831 7.069139,12.777538 h 0.26458 V 56.56962 l -0.26458,-7.9375"
     id="path2652"
     sodipodi:nodetypes="ccccccccccccccccccccccccccccsccccccccccccscccccccccccccscccccccccccccscccccccccccccccccccccccccccccccccccccccccccccccccsccccccccccccscccccccccccccscccccccccccccscccccccccccccccccccccccccccccccccccsccccccccccccscccccccccccccsccccccccccccccsccccccccccccccccccccccccccccccccccccccccccccccccccsccccccccccccscccccccccccccccccccccccccccscsccccccccccccccccccccccccccc" />
</svg>
