<?xml version="1.0" encoding="UTF-8" standalone="no"?>
<!-- Created with Inkscape (http://www.inkscape.org/) -->

<svg
   width="105mm"
   height="61mm"
   viewBox="0 0 105 61.000001"
   version="1.1"
   id="svg5"
   sodipodi:docname="traditional_arrow.svg"
   inkscape:version="1.2-beta (1b65182ce9, 2022-04-05)"
   xmlns:inkscape="http://www.inkscape.org/namespaces/inkscape"
   xmlns:sodipodi="http://sodipodi.sourceforge.net/DTD/sodipodi-0.dtd"
   xmlns="http://www.w3.org/2000/svg"
   xmlns:svg="http://www.w3.org/2000/svg">
  <sodipodi:namedview
     id="namedview132"
     pagecolor="#505050"
     bordercolor="#eeeeee"
     borderopacity="1"
     inkscape:pageshadow="0"
     inkscape:pageopacity="0"
     inkscape:pagecheckerboard="0"
     inkscape:deskcolor="#505050"
     inkscape:document-units="mm"
     showgrid="false"
     inkscape:zoom="1.8081444"
     inkscape:cx="343.72255"
     inkscape:cy="242.23729"
     inkscape:window-width="1366"
     inkscape:window-height="697"
     inkscape:window-x="-8"
     inkscape:window-y="-8"
     inkscape:window-maximized="1"
     inkscape:current-layer="svg5" />
  <defs
     id="defs2" />
  <path
     style="fill:#c400f2;fill-opacity:1;stroke-width:1"
     d="m 13.04729,67.46949 -2.75505,2.38125 -2.84163,2.38125 c 0,0 -0.28766,-4.77261 -0.28766,-16.42357 C 7.16295,40.30936 7.13685,39.38987 6.69993,39.474 6.2658,39.5576 6.23265,40.58249 6.16874,55.89757 6.12534,66.30534 5.84214,72.23199 5.84214,72.23199 L 2.80145,69.67892 0.0192,67.12586 V 50.45051 33.77516 l 0.72191,0.64144 c 0.39705,0.35279 1.65709,1.50463 2.80008,2.55966 1.14299,1.05503 2.18644,1.91823 2.31878,1.91823 0.14109,0 0.2688,-6.75756 0.30877,-16.33802 0.0597,-14.316 0.11729,-16.33802 0.46504,-16.33802 0.34776,0 0.40531,2.02202 0.46504,16.33802 0.0375,8.98591 0.15882,16.33802 0.26963,16.33802 0.1108,0 1.3771,-1.06805 2.81399,-2.37345 1.4369,-1.30539 2.71455,-2.3104 2.83923,-2.23334 0.12468,0.0771 0.2267,7.45542 0.2267,16.39636 0,8.94095 0.19843,16.25296 0.19843,16.25296 l 2.78179,-2.38125 c 0,0 2.69985,-2.37795 3.63436,-2.37795 0.93451,0 3.63436,2.37795 3.63436,2.37795 l 2.78179,2.38125 c 0,0 0.19843,-7.31201 0.19843,-16.25296 0,-8.94094 0.10202,-16.3193 0.2267,-16.39636 0.12468,-0.0771 1.40233,0.92795 2.83923,2.23334 1.43689,1.3054 2.70319,2.37345 2.81399,2.37345 0.11081,0 0.23214,-7.35211 0.26963,-16.33802 0.0597,-14.316 0.11728,-16.33802 0.46504,-16.33802 0.34775,0 0.40531,2.02202 0.46504,16.33802 0.0375,8.98591 0.15882,16.33802 0.26962,16.33802 0.1108,0 1.3771,-1.06805 2.814,-2.37345 1.43689,-1.30539 2.71455,-2.3104 2.83923,-2.23334 0.12468,0.0771 0.22669,7.38886 0.22669,16.24846 0,8.85959 0.21632,16.24204 0.21632,16.24204 l 2.75505,-2.23334 c 0,0 2.66727,-2.36704 3.622495,-2.36704 0.955225,0 3.655085,2.37795 3.655085,2.37795 l 2.78178,2.38125 c 0,0 0.19844,-7.31201 0.19844,-16.25296 0,-9.62048 0.0994,-16.31772 0.24364,-16.40683 0.134,-0.0828 1.39879,0.92218 2.81065,2.23334 1.41186,1.31116 2.67053,2.38392 2.79705,2.38392 0.12711,0 0.26054,-7.3104 0.2982,-16.33802 0.0597,-14.316 0.11728,-16.33802 0.46504,-16.33802 0.34776,0 0.40531,2.02202 0.46504,16.33802 0.0375,8.98591 0.15882,16.33802 0.26962,16.33802 0.11081,0 1.3771,-1.06805 2.814,-2.37345 1.43689,-1.30539 2.71455,-2.3104 2.83923,-2.23334 0.12468,0.0771 0.22669,7.45542 0.22669,16.39636 0,8.94095 0.20409,16.25626 0.20409,16.25626 l 2.78064,-2.38125 c 0,0 2.811229,-2.522012 3.685732,-2.506949 0.874503,0.01506 3.602578,2.506949 3.602578,2.506949 l 2.75505,2.38125 c 0,0 0.20108,-7.31531 0.20108,-16.25626 0,-8.94094 0.10201,-16.3193 0.22669,-16.39636 0.12468,-0.0771 1.40234,0.92795 2.83923,2.23334 1.4369,1.3054 2.7032,2.37345 2.814,2.37345 0.1108,0 0.23213,-7.35211 0.26962,-16.33802 0.0597,-14.316 0.11729,-16.33802 0.46504,-16.33802 0.34776,0 0.40531,2.02202 0.46504,16.33802 0.0375,8.98591 0.15882,16.33802 0.26963,16.33802 0.1108,0 1.3771,-1.06805 2.81399,-2.37345 1.4369,-1.30539 2.71455,-2.3104 2.83923,-2.23334 0.12468,0.0771 0.2267,7.45542 0.2267,16.39636 0,8.94095 0.19843,16.25296 0.19843,16.25296 l 2.78179,-2.38125 c 0,0 2.69985,-2.37795 3.63436,-2.37795 0.93451,0 3.63436,2.37795 3.63436,2.37795 l 3.17867,2.91703 H 92.42494 l -2.79048,2.38923 -2.84427,2.23004 c 0,0 -0.25223,-6.39071 -0.25223,-16.41215 0,-16.07987 -0.006,-16.25626 -0.52917,-16.25626 -0.52347,0 -0.52916,0.17639 -0.52916,16.40416 0,10.65498 -0.26208,16.40417 -0.26208,16.40417 l -2.83862,-2.38125 -2.78063,-2.38125 -13.63169,0.0033 -2.78179,2.38125 -2.84225,2.37794 c 0,0 -0.28355,-5.90758 -0.32707,-16.33802 -0.0597,-14.316 -0.11728,-16.33802 -0.46504,-16.33802 -0.34769,0 -0.40533,1.99875 -0.46509,16.12842 -0.0375,8.87064 -0.30139,16.3616 -0.30139,16.3616 l -2.8422,-2.16834 -2.80747,-2.40483 H 39.50827 l -2.79047,2.38923 -2.84427,2.23004 c 0,0 -0.25224,-6.39071 -0.25224,-16.41215 0,-16.07987 -0.006,-16.25626 -0.52916,-16.25626 -0.52348,0 -0.52917,0.17639 -0.52917,16.40416 0,11.63699 -0.28766,16.40417 -0.28766,16.40417 L 29.43367,69.85073 26.67862,67.46948 H 13.0473 Z m 6.46839,-6.52088 c -0.10004,-0.10004 -0.1819,-7.4844 -0.1819,-16.40968 0,-8.92527 -0.10079,-16.22777 -0.22397,-16.22777 -0.12319,0 -1.38884,1.06901 -2.81256,2.37558 -1.42372,1.30657 -2.69215,2.31158 -2.81873,2.23334 C 13.35193,32.84188 13.24837,25.403 13.24837,16.38929 V 7.4e-4 h 3.04035 3.04034 l 0.0685,13.82448 c 0.0599,12.08159 0.11854,13.82448 0.46538,13.82448 0.34684,0 0.40551,-1.74289 0.46538,-13.82448 L 20.39682,7.4e-4 h 3.04034 3.04035 v 16.38855 c 0,9.01371 -0.10201,16.4516 -0.22669,16.52866 -0.12468,0.0771 -1.40233,-0.92795 -2.83923,-2.23335 -1.4369,-1.30539 -2.7032,-2.37344 -2.814,-2.37344 -0.1108,0 -0.23213,7.34219 -0.26962,16.31599 -0.0656,15.709 -0.13007,17.0037 -0.81231,16.32146 z m 26.45834,0 c -0.10005,-0.10004 -0.1819,-7.4844 -0.1819,-16.40968 0,-8.92527 -0.0916,-16.22777 -0.20348,-16.22777 -0.11191,0 -1.37912,1.06805 -2.81602,2.37344 C 41.33573,31.99 40.05807,32.995 39.93339,32.91795 39.80871,32.84085 39.7067,25.403 39.7067,16.38929 V 7.4e-4 h 3.04035 3.04035 l 0.0685,13.82448 c 0.0599,12.08159 0.11854,13.82448 0.46538,13.82448 0.34684,0 0.40551,-1.74289 0.46538,-13.82448 L 46.85516,7.4e-4 h 3.04035 3.04035 v 16.38855 c 0,9.01371 -0.10202,16.4516 -0.2267,16.52866 -0.12468,0.0771 -1.40233,-0.92795 -2.83923,-2.23335 -1.43689,-1.30539 -2.70319,-2.37344 -2.81399,-2.37344 -0.11081,0 -0.23214,7.34219 -0.26963,16.31599 -0.0656,15.709 -0.13006,17.0037 -0.8123,16.32146 z m 26.45833,0 c -0.10005,-0.10004 -0.1819,-7.4844 -0.1819,-16.40968 0,-8.92527 -0.10079,-16.22777 -0.22398,-16.22777 -0.12319,0 -1.38884,1.06901 -2.81256,2.37558 -1.42371,1.30657 -2.69214,2.31158 -2.81873,2.23334 C 66.2686,32.84188 66.16503,25.403 66.16503,16.38929 V 7.4e-4 h 3.04035 3.04035 l 0.0685,13.82089 c 0.064,12.92105 0.0986,13.82669 0.53152,13.91002 0.43623,0.084 0.46302,-0.71567 0.46302,-13.82088 V 7.4e-4 h 3.04271 3.04271 v 16.38855 c 0,9.01371 -0.10201,16.4516 -0.22669,16.52866 -0.12468,0.0771 -1.40234,-0.92795 -2.83923,-2.23335 -1.4369,-1.30539 -2.7032,-2.37344 -2.814,-2.37344 -0.1108,0 -0.23213,7.34219 -0.26962,16.31599 -0.0656,15.709 -0.13007,17.0037 -0.81231,16.32146 z m 26.45833,0 c -0.10004,-0.10004 -0.1819,-7.4844 -0.1819,-16.40968 0,-8.92527 -0.10079,-16.22777 -0.22397,-16.22777 -0.12319,0 -1.38884,1.06901 -2.81256,2.37558 -1.42372,1.30657 -2.69215,2.31158 -2.81873,2.23334 C 92.72694,32.84188 92.62337,25.403 92.62337,16.38929 V 7.4e-4 h 3.0427 3.04271 v 13.91003 c 0,13.10521 0.0268,13.90486 0.46302,13.82088 0.43288,-0.0833 0.46749,-0.98897 0.53153,-13.91002 L 99.77183,7.4e-4 h 3.04035 3.04034 v 16.38855 c 0,9.53127 -0.1005,16.45067 -0.2402,16.53701 -0.13211,0.0816 -1.40605,-0.92336 -2.83098,-2.23335 -1.42493,-1.30998 -2.68516,-2.38179 -2.80049,-2.38179 -0.11534,0 -0.24038,7.34219 -0.27787,16.31599 -0.0656,15.709 -0.13006,17.0037 -0.81231,16.32146 z M 2.79732,2.50286 0.15149,0.004 3.12805,0.002 6.10462,0 v 2.51354 c 0,1.84141 -0.0884,2.51005 -0.33073,2.50049 C 5.59199,5.00703 4.25253,3.87649 2.79732,2.50212 Z m 4.36563,0.0114 V 7.2e-4 l 2.97656,0.002 2.97656,0.002 -2.64583,2.49886 C 9.01503,3.87795 7.67558,5.00831 7.49368,5.01549 7.25139,5.02549 7.16295,4.35641 7.16295,2.515 Z m 22.23133,0.0861 C 27.93559,1.26527 26.74212,0.13418 26.74212,0.08681 c 0,-0.0474 1.30968,-0.0861 2.91041,-0.0861 h 2.91042 v 2.51354 c 0,1.45821 -0.10843,2.51354 -0.25825,2.51354 -0.14204,0 -1.45173,-1.09234 -2.91042,-2.42742 z m 4.227,-0.0861 V 7.2e-4 h 2.91042 c 1.60073,0 2.91042,0.0387 2.91042,0.0861 0,0.20656 -5.33004,4.94097 -5.56259,4.94097 -0.14982,0 -0.25825,-1.05533 -0.25825,-2.51354 z M 55.72247,2.50106 53.08513,7.3e-4 h 2.96807 2.96808 v 2.51354 c 0,1.84149 -0.0884,2.51001 -0.33073,2.50033 -0.1819,-0.007 -1.51753,-1.13836 -2.96808,-2.51354 z m 4.35715,0.0132 V 7.2e-4 l 2.97656,0.002 2.97656,0.002 -2.64583,2.49886 C 61.9317,3.87795 60.59225,5.00831 60.41035,5.01549 60.16806,5.02549 60.07962,4.35641 60.07962,2.515 Z M 82.17233,2.50286 79.52649,0.004 82.50305,0.002 85.47962,0 v 2.51354 c 0,1.84141 -0.0884,2.51005 -0.33073,2.50049 -0.1819,-0.007 -1.52136,-1.13754 -2.97656,-2.51191 z m 4.36562,0.0114 V 7.2e-4 h 2.91042 c 1.60073,0 2.91041,0.0387 2.91041,0.0861 0,0.20656 -5.33004,4.94097 -5.56258,4.94097 -0.14982,0 -0.25825,-1.05533 -0.25825,-2.51354 z M 105.98483,0.004 c -70.656553,-0.00266667 -35.328277,-0.00133333 0,0 z"
     id="path2234"
     sodipodi:nodetypes="cccccccccccssccccccsssccsccsccccccsccsccsscsccccccscssccsscsccccccscssccsscscccccccccssscccccccsccccccccsscccccssscsccccsccccccsscccsssccsccccsscccccsscsssssscscccccscccccsscssscsscscccscscccccsscssccccscccccccccscccscssccccsssccccccsccccccscscccccsccccc" />
</svg>
